<?xml version="1.0" encoding="UTF-8" standalone="no"?>
<svg
   xmlns:dc="http://purl.org/dc/elements/1.1/"
   xmlns:cc="http://creativecommons.org/ns#"
   xmlns:rdf="http://www.w3.org/1999/02/22-rdf-syntax-ns#"
   xmlns:svg="http://www.w3.org/2000/svg"
   xmlns="http://www.w3.org/2000/svg"
   xmlns:sodipodi="http://sodipodi.sourceforge.net/DTD/sodipodi-0.dtd"
   xmlns:inkscape="http://www.inkscape.org/namespaces/inkscape"
   version="1.0"
   x="0px"
   y="0px"
   viewBox="0 0 12 12"
   enable-background="new 0 0 100 68.252"
   xml:space="preserve"
   id="svg2"
   inkscape:version="0.91 r13725"
   sodipodi:docname="leisure-12.svg"
   width="12"
   height="12"><metadata
     id="metadata10"><rdf:RDF><cc:Work
         rdf:about=""><dc:format>image/svg+xml</dc:format><dc:type
           rdf:resource="http://purl.org/dc/dcmitype/StillImage" /><dc:title></dc:title></cc:Work></rdf:RDF></metadata><defs
     id="defs8" /><sodipodi:namedview
     pagecolor="#ffffff"
     bordercolor="#666666"
     borderopacity="1"
     objecttolerance="10"
     gridtolerance="10"
     guidetolerance="10"
     inkscape:pageopacity="0"
     inkscape:pageshadow="2"
     inkscape:window-width="962"
     inkscape:window-height="640"
     id="namedview6"
     showgrid="false"
     inkscape:zoom="37.25"
     inkscape:cx="6"
     inkscape:cy="6"
     inkscape:window-x="0"
     inkscape:window-y="0"
     inkscape:window-maximized="0"
     inkscape:current-layer="svg2" /><path
     d="m 11.2104,5.6685413 -2.7315608,0 -0.7347471,-2.5128692 1.4487292,-0.00122 0,-0.7643777 -6.4229242,0 -0.00104,0.7700126 1.507993,-0.00114 -0.7325552,2.5051487 -2.7676622,0 0,0.6523192 2.5699425,0 -0.9454038,3.1949249 1.1101533,0 0.9423778,-3.1949249 3.0687807,0 0.9312141,3.1949249 1.1585658,0 -0.949891,-3.1905426 2.5480319,0 0,-0.6522143 0,0 0,0 z m -6.5559559,-3.098e-4 0.7380852,-2.5117227 1.2136559,-0.00114 0.7170093,2.5128692 -2.6687504,0 0,0 0,0 z"
     id="path4"
     inkscape:connector-curvature="0"
     style="clip-rule:evenodd;fill-rule:evenodd" /></svg>